<?xml version="1.0" encoding="UTF-8" standalone="no"?>
<!-- Created with Inkscape (http://www.inkscape.org/) -->

<svg
   width="106.21492mm"
   height="98.884056mm"
   viewBox="0 0 106.21492 98.884056"
   version="1.1"
   id="svg1"
   xml:space="preserve"
   xmlns="http://www.w3.org/2000/svg"
   xmlns:svg="http://www.w3.org/2000/svg"><defs
     id="defs1" /><g
     id="layer1"
     transform="translate(-28.984933,-61.140915)"><g
       id="g1"
       transform="matrix(2.3571455,0,0,2.2460468,-167.97233,-172.47278)"><rect
         style="fill:#f5e701;fill-opacity:1;stroke:#ffffff;stroke-width:0.189054"
         id="rect6"
         width="21.853296"
         height="20.968456"
         x="84.123138"
         y="104.83479" /><rect
         style="fill:#00a04d;fill-opacity:1;stroke:#ffffff;stroke-width:0.189054"
         id="rect8"
         width="21.978172"
         height="21.099508"
         x="84.248016"
         y="126.06535" /><rect
         style="fill:#00a8e9;fill-opacity:1;stroke:#ffffff;stroke-width:0.189054"
         id="rect7"
         width="21.978172"
         height="21.23056"
         x="105.97643"
         y="126.06535" /><rect
         style="fill:#e41a21;fill-opacity:1;stroke:#ffffff;stroke-width:0.189054"
         id="rect5"
         width="21.978172"
         height="21.23056"
         x="106.10131"
         y="104.70374" /><path
         style="display:inline;fill:#292d28;stroke-width:0.790586"
         d="m 84.690634,147.79627 c -0.227393,-0.12804 -0.574167,-0.43469 -0.770609,-0.68145 -0.332877,-0.41815 -0.35748,-1.84662 -0.361764,-21.00393 -0.0045,-20.39071 -0.0012,-20.55967 0.418251,-21.10566 0.232565,-0.30273 0.767462,-0.6484 1.188652,-0.76817 1.072592,-0.30502 40.788786,-0.29961 41.862576,0.006 0.52813,0.15016 0.91781,0.44487 1.18787,0.89837 0.39072,0.6561 0.40194,1.24311 0.4027,21.06821 7.7e-4,20.39332 7.7e-4,20.39332 -0.70209,21.11296 -0.70285,0.71964 -0.70285,0.71964 -21.75749,0.71321 -14.91155,-0.005 -21.175284,-0.0744 -21.468096,-0.23923 z m 42.594146,-1.12049 c 0.43481,-0.44519 0.50741,-0.71668 0.50741,-1.89748 0,-1.14573 -0.0674,-1.41489 -0.39985,-1.59706 -0.25052,-0.13729 -2.7511,-0.21911 -6.69557,-0.21911 -7.13567,0 -7.09569,0.009 -7.30699,-1.60428 -0.0932,-0.71121 -0.0229,-0.96596 0.40828,-1.47945 0.52084,-0.6203 0.52084,-0.6203 7.2058,-0.72613 6.68497,-0.10583 6.68497,-0.10583 6.74533,-1.87252 0.0383,-1.12046 -0.0277,-1.87533 -0.18035,-2.06368 -0.19719,-0.24328 -1.41015,-0.29697 -6.70878,-0.29697 -6.46805,0 -6.46805,0 -7.00323,-0.65122 -0.67236,-0.81814 -0.68527,-1.68632 -0.0366,-2.45894 0.49862,-0.59387 0.49862,-0.59387 7.18359,-0.6997 6.68496,-0.10583 6.68496,-0.10583 6.74502,-1.85305 0.0557,-1.62192 0.0231,-1.78511 -0.45573,-2.27533 -0.51578,-0.52811 -0.51578,-0.52811 -10.24112,-0.52811 -9.4497,0 -9.73705,0.012 -10.13878,0.42332 -0.40119,0.41077 -0.41344,0.70552 -0.41344,9.94796 0,9.24243 0.0123,9.53718 0.41344,9.94795 0.40173,0.41132 0.68908,0.42332 10.13878,0.42332 9.72534,0 9.72534,0 10.23274,-0.51952 z m -38.142896,-7.20602 c 0.06055,-4.07443 0.130315,-7.42816 0.155044,-7.45273 0.786179,-0.78115 1.037574,-0.90779 1.802092,-0.90779 0.764514,0 1.015916,0.12664 1.802096,0.90779 0.0247,0.0246 0.0945,3.3783 0.15504,7.45273 0.11008,7.40806 0.11008,7.40806 2.01461,7.46881 1.90452,0.0608 1.90452,0.0608 1.96386,-7.37368 0.0593,-7.43442 0.0593,-7.43442 0.63934,-7.94503 0.78102,-0.68757 1.78255,-0.6741 2.605664,0.035 0.63337,0.54566 0.63337,0.54566 0.68771,7.88428 0.0543,7.33862 0.0543,7.33862 1.70743,7.40138 2.15098,0.0816 2.49424,-0.0217 2.77078,-0.83387 0.30798,-0.90459 0.31498,-17.69721 0.008,-18.52467 -0.12081,-0.32533 -0.33012,-0.66344 -0.46512,-0.75133 -0.13501,-0.0879 -4.67603,-0.16127 -10.091144,-0.16305 -8.908609,-0.003 -9.87267,0.0301 -10.129386,0.34677 -0.231182,0.28522 -0.28371,2.11052 -0.28371,9.85919 0,11.18166 -0.27257,10.15994 2.684931,10.06439 1.862952,-0.0602 1.862952,-0.0602 1.973039,-7.46825 z m 2.068575,-15.10613 c 0.08808,-0.89838 0.23133,-1.24224 0.683374,-1.64035 0.535803,-0.47188 0.733733,-0.5037 3.132903,-0.5037 2.36382,0 2.60293,0.037 3.10604,0.48004 0.41623,0.36658 0.57777,0.75433 0.68338,1.64036 0.13831,1.16031 0.13831,1.16031 3.064724,1.21891 4.20691,0.0842 3.81838,1.16066 3.74654,-10.37947 -0.0578,-9.29524 -0.0578,-9.29524 -0.54588,-9.69972 -0.46478,-0.38522 -0.94512,-0.40447 -10.087104,-0.40447 -9.599067,0 -9.599067,0 -10.106474,0.51952 -0.507407,0.51952 -0.507407,0.51952 -0.507407,9.64438 0,9.07688 0.04633,9.75021 0.70279,10.20818 0.125103,0.0873 1.529808,0.1349 3.121567,0.10583 2.894108,-0.0529 2.894108,-0.0529 3.005547,-1.18951 z m 0.59618,-5.93763 c -0.598665,-0.61297 -0.604259,-0.64151 -0.604259,-3.08296 0,-3.78475 0.115712,-3.90207 3.857666,-3.91133 2.72069,-0.006 2.72069,-0.006 3.27198,0.6641 0.54218,0.65973 0.55018,0.7143 0.4835,3.29953 -0.0666,2.58052 -0.0784,2.63807 -0.64781,3.13903 -0.54615,0.48054 -0.7311,0.51033 -3.1684,0.51033 -2.58524,0 -2.58915,-7.6e-4 -3.192677,-0.6187 z m 35.443091,6.78582 c 0.29599,-0.33487 0.33976,-0.80542 0.29045,-3.12196 -0.0581,-2.72768 -0.0581,-2.72768 -6.63965,-2.83351 -6.58158,-0.10582 -6.58158,-0.10582 -7.08023,-0.69969 -0.46901,-0.55856 -0.49865,-0.74975 -0.49865,-3.21599 0,-2.46625 0.0296,-2.65744 0.49865,-3.21599 0.49865,-0.59387 0.49865,-0.59387 7.13191,-0.65778 6.63326,-0.0639 6.63326,-0.0639 6.63326,-2.89831 0,-2.68904 -0.0236,-2.85128 -0.45944,-3.16388 -0.39993,-0.28681 -1.7119,-0.32948 -10.12938,-0.32948 -9.39431,0 -9.68173,0.0121 -10.08339,0.42331 -0.40106,0.41063 -0.41344,0.70553 -0.41344,9.84213 0,9.1366 0.0124,9.43149 0.41344,9.84213 0.4018,0.4114 0.68908,0.42332 10.2007,0.42332 9.2846,0 9.80516,-0.0202 10.13577,-0.3943 z"
         id="path1" /></g></g></svg>
