<?xml version="1.0" encoding="UTF-8" standalone="no"?>
<!-- Created with Inkscape (http://www.inkscape.org/) -->

<svg
   width="46.23465mm"
   height="42.809376mm"
   viewBox="0 0 46.23465 42.809376"
   version="1.1"
   id="svg1"
   xml:space="preserve"
   xmlns="http://www.w3.org/2000/svg"
   xmlns:svg="http://www.w3.org/2000/svg"><defs
     id="defs1" /><g
     id="layer1"
     transform="matrix(0.37784093,0,0,0.375455,-2.2679374,-20.913071)"><rect
       style="fill:#292d28;fill-opacity:1;stroke:#ffffff;stroke-width:3.98252;stroke-dasharray:none;stroke-opacity:1"
       id="rect9"
       width="118.38286"
       height="110.03746"
       x="7.9936175"
       y="57.691864"
       ry="4.8032217" /><path
       d="m 26.212117,143.14417 c 0.10748,-5.57976 0.14782,-11.1627 0.36546,-16.73918 1.50738,-1.86716 4.12791,-2.59214 6.35255,-1.67741 2.84401,0.96336 2.18586,3.97727 2.28791,6.3549 0.26633,8.21326 0.0706,16.44634 0.65345,24.64552 -0.19733,2.53469 1.69651,4.72355 4.31587,4.19147 2.76506,0.76272 4.57467,-1.66964 4.31764,-4.25995 0.57609,-9.13821 0.075,-18.31358 0.64184,-27.45184 -0.14138,-3.04768 3.73287,-4.72631 6.18905,-3.34716 2.63097,0.92565 2.52375,3.94891 2.58684,6.23327 0.30226,8.41268 -0.0683,16.84848 0.52617,25.24834 -0.32904,3.19707 2.8396,3.98802 5.37179,3.62868 1.98478,0.1683 4.99407,-0.0372 4.94934,-2.70155 0.59186,-10.37382 0.42574,-20.77748 0.34724,-31.16375 -0.10959,-3.21937 -0.01,-6.46814 -0.45614,-9.66186 -0.6285,-2.69074 -3.71826,-1.60975 -5.72722,-1.8963 -13.10651,-0.18219 -26.21905,-0.26668 -39.32482,-0.0163 -2.315755,-0.322 -4.732848,0.57674 -4.158111,3.33689 -0.362017,10.98367 -0.17438,21.97833 -0.217262,32.96643 0.157154,2.80016 -0.226599,5.81759 1.048273,8.39801 1.678907,1.63876 4.31412,0.42861 6.40317,0.6374 2.95074,0.10621 3.07939,-3.33458 3.21847,-5.48961 0.23087,-3.7398 0.23789,-7.49228 0.30849,-11.23601 z"
       style="display:inline;fill:#00a04d;fill-opacity:1;stroke-width:1.81908"
       id="path1-9" /><g
       id="path6"
       style="fill:#f5e701;fill-opacity:1;stroke:none;stroke-opacity:1"><path
         style="fill:#f5e701;fill-opacity:1;stroke:none;stroke-width:0;stroke-dasharray:none;stroke-opacity:1"
         d="m 16.936323,110.52745 c -2.078905,-1.2264 -1.400431,-4.29776 -1.742249,-6.39153 -0.297711,-11.306534 -0.124376,-22.621794 0.0089,-33.929894 -0.319197,-2.38888 0.666623,-5.38821 3.602353,-4.97331 9.11898,-0.41805 18.256016,-0.23017 27.382571,-0.30072 5.379188,0.11045 10.7913,-0.17644 16.144275,0.45886 2.922265,0.59077 1.877421,4.41155 2.277173,6.55876 0.20969,11.47753 0.191091,22.96281 -0.05159,34.439094 0.170883,2.18431 -1.205964,4.69512 -3.704262,4.27124 -3.581257,0.007 -7.198429,0.0607 -10.749987,-0.43646 -1.799399,-1.50898 -0.82448,-4.8504 -3.04629,-6.22587 -2.295345,-1.22807 -5.063931,-0.59253 -7.562562,-0.7867 -2.394788,0.25007 -5.313394,-0.5121 -7.241193,1.32635 -1.88567,1.41979 -0.649086,4.69998 -2.69895,5.72558 -4.091766,0.54833 -8.257865,0.3113 -12.377726,0.2899 l -0.240439,-0.0253 z M 47.159179,95.340346 c 2.182531,-1.34841 1.484264,-4.21804 1.793934,-6.37262 -0.05107,-2.45163 0.516496,-5.05552 -0.351851,-7.40596 -0.653985,-0.75023 -1.19374,-2.15949 -2.239064,-2.3325 -4.349972,-0.23271 -8.768701,-0.5017 -13.071635,0.28148 -2.365786,0.8211 -2.488019,3.79917 -2.428114,5.91798 0.125075,2.81402 -0.374616,5.76295 0.51828,8.4754 1.103051,2.25422 3.751467,2.34304 5.920634,2.26689 2.922695,-7.1e-4 5.84517,-0.0461 8.767744,-0.0699 0.363357,-0.2536 0.726715,-0.5072 1.090072,-0.7608 z"
         id="path10" /><path
         style="fill:#f5e701;fill-opacity:1;stroke:none;stroke-opacity:1"
         d="m 46.183594,64.494141 c -9.118294,0.07049 -18.26011,-0.118156 -27.398438,0.300781 l 0.08203,0.0039 c -1.619234,-0.228843 -2.822627,0.537838 -3.46289,1.650391 -0.640263,1.112552 -0.805379,2.537577 -0.634766,3.814453 l -0.0039,-0.0625 c -0.133264,11.307069 -0.307796,22.626633 -0.0098,33.945304 l 0.002,0.0312 0.0039,0.0293 c 0.15801,0.96788 0.07759,2.25969 0.216797,3.49805 0.13921,1.23836 0.541261,2.49422 1.736328,3.19922 l 0.101562,0.0605 h 0.09766 l 0.238282,0.0254 h 0.02148 c 4.104612,0.0213 8.292484,0.26276 12.439453,-0.29296 l 0.07227,-0.01 0.06445,-0.0332 c 0.611674,-0.30604 0.998574,-0.80763 1.228516,-1.34766 0.229941,-0.54003 0.325993,-1.12304 0.417968,-1.68945 0.18395,-1.13283 0.344322,-2.14561 1.121094,-2.73047 l 0.01953,-0.0156 0.01758,-0.0176 c 0.862241,-0.82228 1.944128,-1.07072 3.167969,-1.13868 1.217583,-0.0676 2.543243,0.06 3.798828,-0.0684 2.570581,0.18751 5.218912,-0.37709 7.310547,0.73047 0.944472,0.58999 1.223185,1.59607 1.478516,2.77539 0.25614,1.18307 0.460371,2.52459 1.511719,3.40625 l 0.0957,0.0801 0.125,0.0176 c 3.596235,0.50341 7.233088,0.4484 10.810547,0.44141 l -0.07227,-0.006 c 1.402686,0.23799 2.56389,-0.37649 3.275391,-1.32617 0.7115,-0.94969 1.031084,-2.21392 0.9375,-3.41016 l 0.002,0.043 c 0.242801,-11.481979 0.260577,-22.973697 0.05078,-34.45703 v -0.03516 l -0.0078,-0.03711 c -0.178774,-0.960264 -0.02461,-2.462041 -0.1875,-3.833985 -0.08144,-0.685972 -0.245364,-1.354257 -0.623046,-1.916015 -0.377683,-0.561758 -0.985233,-0.989403 -1.810547,-1.15625 l -0.01563,-0.0039 -0.01953,-0.002 C 56.980255,64.315847 51.554884,64.604148 46.197266,64.494141 h -0.0059 z m -0.0039,0.875 c 5.391537,0.110703 10.779561,-0.170152 16.074219,0.455078 0.628871,0.129443 0.988788,0.397586 1.248047,0.783203 0.260789,0.387893 0.407871,0.919779 0.480469,1.53125 0.145196,1.222941 -0.02371,2.703678 0.197265,3.890625 l -0.0078,-0.07227 c 0.209584,11.471728 0.191779,22.951288 -0.05078,34.421883 l -0.002,0.0215 0.002,0.0215 c 0.0773,0.98806 -0.206849,2.07252 -0.765625,2.81835 -0.558777,0.74584 -1.334075,1.17418 -2.429688,0.98829 l -0.03516,-0.006 h -0.03711 c -3.529081,0.007 -7.068579,0.0468 -10.523438,-0.41993 -0.686836,-0.63575 -0.911411,-1.66703 -1.164062,-2.83398 -0.261703,-1.20876 -0.608826,-2.55747 -1.878907,-3.34375 l -0.01172,-0.006 -0.01172,-0.008 c -2.479748,-1.32673 -5.334161,-0.64942 -7.734375,-0.83594 l -0.04102,-0.004 -0.03906,0.004 c -1.133465,0.11836 -2.459282,-0.007 -3.775391,0.0664 -1.306012,0.0725 -2.633744,0.36593 -3.695312,1.36328 -1.092149,0.83582 -1.264693,2.16111 -1.445313,3.27344 -0.09082,0.5593 -0.185724,1.07654 -0.359375,1.48437 -0.166955,0.3921 -0.399454,0.66781 -0.783203,0.87305 -3.994735,0.52195 -8.093182,0.30146 -12.183594,0.27929 l -0.08789,-0.01 c -0.841027,-0.52574 -1.147438,-1.39458 -1.271485,-2.49805 -0.126733,-1.12736 -0.03885,-2.41707 -0.222656,-3.54297 l 0.0059,0.0606 C 15.333519,92.829968 15.507388,81.519424 15.64071,70.210293 v -0.03125 l -0.0039,-0.03125 c -0.148584,-1.112003 0.01861,-2.381111 0.52539,-3.261718 0.506781,-0.880608 1.265536,-1.406761 2.582032,-1.220703 l 0.04102,0.0059 0.04102,-0.002 c 9.095736,-0.416985 18.222613,-0.230419 27.353515,-0.300781 z m -6.371093,13.18164 c -2.203338,0.0016 -4.409595,0.131402 -6.595703,0.529297 l -0.0332,0.0059 -0.0332,0.01172 c -1.335483,0.46351 -2.058236,1.572134 -2.40039,2.765625 -0.342154,1.193492 -0.350667,2.504528 -0.320313,3.578125 v 0.0039 0.002 c 0.122178,2.74883 -0.398442,5.745785 0.539063,8.59375 l 0.0098,0.0293 0.01367,0.02539 c 0.611292,1.249251 1.686702,1.921809 2.837891,2.238281 1.151189,0.316473 2.39345,0.311941 3.490234,0.273438 l -0.01563,0.002 c 2.927154,-7.11e-4 5.851065,-0.04653 8.771485,-0.07031 l 0.136718,-0.002 1.179688,-0.824218 0.02148,-0.01367 -0.0059,-0.0039 c 1.21009,-0.759195 1.645766,-1.978753 1.789062,-3.1875 0.144171,-1.216119 0.049,-2.474139 0.19336,-3.478515 l 0.0039,-0.03516 v -0.03516 c -0.04953,-2.377696 0.547322,-5.041715 -0.378906,-7.548828 l -0.02734,-0.07617 -0.05273,-0.06055 c -0.277002,-0.317767 -0.579255,-0.854671 -0.951172,-1.355468 -0.371917,-0.500797 -0.84737,-1.00532 -1.546875,-1.121094 l -0.02344,-0.0039 h -0.02539 c -2.173898,-0.116297 -4.372834,-0.24377 -6.576172,-0.242188 z m 0,0.876953 c 2.155621,-0.0015 4.325783,0.120559 6.488281,0.236328 0.343578,0.05947 0.659484,0.343175 0.980469,0.775391 0.297852,0.401067 0.581262,0.887273 0.917968,1.300781 0.796838,2.187921 0.267908,4.720628 0.320313,7.236328 -0.151775,1.131097 -0.06427,2.35529 -0.191406,3.427735 -0.129505,1.09241 -0.439347,1.970282 -1.390625,2.560547 -0.0018,0.0011 -0.0021,0.0028 -0.0039,0.0039 l -1,0.697266 c -2.879004,0.02409 -5.756188,0.06766 -8.628906,0.06836 h -0.0078 -0.0078 c -1.072383,0.03765 -2.237442,0.02831 -3.228515,-0.244141 -0.981034,-0.269695 -1.770712,-0.771163 -2.263672,-1.755859 -0.834077,-2.569062 -0.36669,-5.456749 -0.494141,-8.324219 l 0.002,0.0059 c -0.02955,-1.045213 -0.0083,-2.281979 0.28711,-3.3125 0.293025,-1.022124 0.812481,-1.80434 1.826171,-2.166016 2.102571,-0.379021 4.24042,-0.508236 6.394532,-0.509766 z"
         id="path11" /></g><path
       style="fill:#e41a21;fill-opacity:1;stroke:none;stroke-width:0.875076;stroke-dasharray:none;stroke-opacity:1"
       d="m 73.89746,110.18646 c -2.563176,0.4529 -4.449371,-1.34849 -4.038583,-3.95777 -0.443938,-9.570168 -0.198941,-19.160588 -0.147515,-28.738288 0.09409,-3.70953 0.02681,-7.43517 0.360223,-11.13107 0.988467,-2.28056 4.237854,-1.19521 6.23258,-1.57535 12.425422,-0.10293 24.854475,-0.2463 37.279285,-0.0496 1.81664,0.19946 4.97199,-0.31458 5.33285,2.15839 0.068,3.07771 0.51101,6.26598 -0.32332,9.27015 -1.2365,2.63895 -4.63768,1.86791 -6.99307,2.15197 -7.68174,0.33085 -15.3833,0.23267 -23.053102,0.79995 -1.335322,0.11757 -2.477207,1.30144 -2.860678,2.48555 0.07147,3.81781 -0.169433,7.65094 0.145036,11.45606 0.267579,2.65545 3.349823,2.86071 5.420556,2.97673 8.091766,0.4014 16.230608,0.0753 24.290298,0.99067 2.72601,-0.0141 3.547,2.78616 3.34819,5.049488 -0.0627,2.38132 0.36268,4.89088 -0.41883,7.18116 -1.79641,1.58143 -4.57907,0.60034 -6.81599,0.9256 -12.584607,0.10231 -25.174854,0.25432 -37.75793,0.006 z"
       id="path7" /><path
       style="fill:#00a8e9;fill-opacity:1;stroke:none;stroke-width:1.06018;stroke-dasharray:none;stroke-opacity:1"
       d="m 76.374699,160.98748 c -3.633959,-0.16333 -4.620588,-0.30904 -5.07495,-0.74947 -0.44376,-0.43017 -0.626958,-1.48194 -0.85926,-4.9336 -0.415669,-6.1759 -0.125425,-37.55076 0.357908,-38.68909 0.20575,-0.48455 0.783695,-1.05591 1.284345,-1.26967 1.294598,-0.55276 42.602748,-0.56076 43.891528,-0.008 1.61092,0.6903 2.08188,1.82163 1.99316,4.78783 -0.0437,1.46025 -0.23041,2.92807 -0.41494,3.26181 -0.18456,0.33375 -0.88874,0.76432 -1.5649,0.95686 -0.69277,0.19728 -6.39666,0.47755 -13.06831,0.64215 -14.112854,0.34818 -15.125131,0.4367 -16.131225,1.41045 -1.904227,1.84309 -1.515845,5.33606 0.753491,6.77625 0.791087,0.50204 2.277903,0.57271 15.065824,0.71616 11.35701,0.12738 14.29657,0.24632 14.73158,0.59599 0.43716,0.3514 0.54346,1.04217 0.54346,3.53151 0,3.50688 -0.26274,3.97446 -2.52463,4.49297 -0.69149,0.15853 -6.88077,0.43234 -13.75394,0.6085 -6.873185,0.17616 -12.910247,0.40974 -13.415702,0.51907 -0.505455,0.1093 -1.301787,0.68453 -1.769634,1.27821 -0.696803,0.88419 -0.84305,1.39856 -0.808631,2.84379 0.09665,4.05597 -0.085,4.0112 17.215587,4.24345 16.20163,0.21751 15.10795,-0.0174 15.31387,3.28801 0.17774,2.85312 -0.42637,4.38666 -2.02585,5.14254 -1.19463,0.56456 -2.35374,0.60776 -18.251744,0.68019 -9.336839,0.0425 -19.006006,-0.0139 -21.487037,-0.1254 z"
       id="path9" /></g></svg>
