<?xml version="1.0" encoding="utf-8"?>
<!-- Generator: Adobe Adobe Illustrator 24.2.0, SVG Export Plug-In . SVG Version: 6.00 Build 0)  -->
<svg version="1.1" id="Layer_1" xmlns="http://www.w3.org/2000/svg" xmlns:xlink="http://www.w3.org/1999/xlink" x="0px" y="0px"
	 width="300px" height="300px" viewBox="0 0 300 300" style="enable-background:new 0 0 300 300;" xml:space="preserve">
<style type="text/css">
	.st0{fill:#FFEE00;}
	.st1{fill:#1F1514;stroke:#000000;stroke-width:0.7318;stroke-miterlimit:10;}
	.st2{fill:#EDE3C7;stroke:#000000;stroke-width:0.7318;stroke-miterlimit:10;}
	.st3{fill:#59491C;stroke:#000000;stroke-width:0.7318;stroke-miterlimit:10;stroke-dasharray:0,0,0,0,0,0;}
	.st4{fill:#068C0F;stroke:#000000;stroke-width:0.7318;stroke-miterlimit:10;}
	.st5{fill:#301E1C;stroke:#000000;stroke-width:0.772;stroke-miterlimit:10;stroke-dasharray:0,0,0,0,0,0;}
	.st6{fill:#0059FF;stroke:#000000;stroke-width:0.7318;stroke-miterlimit:10;}
	.st7{fill:#093C99;stroke:#000000;stroke-width:0.7318;stroke-miterlimit:10;}
	.st8{fill:#093C99;stroke:#000000;stroke-width:0.6018;stroke-miterlimit:10;}
	.st9{fill:#0099FF;stroke:#000000;stroke-width:0.7318;stroke-miterlimit:10;}
	.st10{fill:#EFE4C7;stroke:#000000;stroke-width:0.7318;stroke-miterlimit:10;}
	.st11{fill:#241F11;stroke:#000000;stroke-width:0.7318;stroke-miterlimit:10;}
	.st12{fill:#6E4003;stroke:#1A1111;stroke-width:2.1316;stroke-miterlimit:10;}
	.st13{fill:#014A06;stroke:#000000;stroke-width:0.7318;stroke-miterlimit:10;}
	.st14{fill:#301E1C;stroke:#000000;stroke-width:0.772;stroke-miterlimit:10;}
	.st15{fill:#068C0F;stroke:#000000;stroke-width:0.788;stroke-miterlimit:10;}
	.st16{fill:#FA0400;stroke:#000000;stroke-width:0.5387;stroke-miterlimit:10;}
	.st17{fill:#125624;stroke:#000000;stroke-width:0.7318;stroke-miterlimit:10;}
	.st18{fill:#EBC7C7;stroke:#000000;stroke-width:0.7318;stroke-miterlimit:10;}
	.st19{stroke:#000000;stroke-width:0.7318;stroke-miterlimit:10;}
	.st20{opacity:0.2902;stroke:#000000;stroke-width:1.2258;stroke-miterlimit:10;}
	.st21{fill:none;stroke:#000000;stroke-width:1.2258;stroke-miterlimit:10;}
	.st22{fill:none;stroke:#000000;stroke-width:1.8946;stroke-miterlimit:10;}
	.st23{fill:none;stroke:#000000;stroke-width:0.7318;stroke-miterlimit:10;}
	.st24{font-family:'AcademyEngravedLetPlain';}
	.st25{font-size:2.9438px;}
</style>
<g>
	<g>
		<rect width="300" height="300"/>
		<rect x="15" y="15" class="st0" width="270" height="270"/>
		<g>
			<rect x="102.43" y="109.88" class="st1" width="97.52" height="45.48"/>
			<path class="st2" d="M59.15,285c0,0,37.31-117.69,37.97-119.72c8.61-26.52,81.84-27.87,107.34-7.64
				C218.54,168.82,249,285,249,285H59.15z"/>
			<polygon class="st3" points="205.3,285 194.28,202.15 209.9,285 			"/>
			<polygon class="st4" points="116.8,117.8 119.01,63.77 191.28,62.66 188.27,124.65 			"/>
			<path class="st5" d="M83.17,157.86c-1.43,3.58,8.54,9.5,12.49,9.4c2.78-0.07,8.42-2.53,9.96-4.77c1.29-1.88,2.4-6.67,1.82-8.86
				c-0.8-3.03,2.59-11.26,1.38-14.16c-1.3-3.11-7.44-6.95-9.66-9.69c-1.43-1.78,5.54-4.21,7.58-5.32c2.03-1.1,6.51-2.9,8-4.63
				c1.44-1.68,3.13-5.99,3.23-8.18c0.08-1.94-0.96-5.74-1.4-7.63c-0.63-2.68-3.19-8.18-2.25-10.77c0.66-1.8,4.43-3.8,6.03-4.91
				c1.76-1.22,5.47-3.65,6.6-5.45c1.02-1.62,2.09-5.46,1.96-7.36c-0.18-2.77-4.96-8.43-3.23-10.63c4.48-5.72,22.14,1.61,29.47,2.59
				c6.86,0.92,22.86-6.36,27.65-1.5c1.33,1.35-0.86,5.54-1.26,7.36c-0.52,2.37-1.47,7.55-0.28,9.68c1.2,2.15,6.47,3.88,8.28,5.59
				c1.72,1.62,4.37,5.89,4.52,8.21c0.17,2.53-2.32,7.28-2.7,9.78c-0.42,2.77-0.16,8.55,0.84,11.18c1.16,3.03,5.53,8.08,7.16,10.9
				c1.28,2.21,4.03,6.87,3.93,9.4c-0.1,2.68-3.55,7.29-4.49,9.81c-0.63,1.69-1.55,5.34-1.12,7.09c0.61,2.53,3.59,7.15,5.61,8.86
				c2.46,2.08,8.1,6.32,11.37,6.27c1.74-0.03,4.94-1.95,6.17-3.13c0.84-0.8,2.33-2.63,2.81-3.68c0.7-1.54,3.14-5.62,1.68-6.54
				c-1.71-1.09-4.75,4.04-6.74,4.5c-1.44,0.33-4.45-1.14-5.47-2.18c-1.12-1.14-3.28-3.88-3.23-5.45c0.07-2.26,3.27-5.98,4.49-7.91
				c1.51-2.39,4.59-7.32,5.05-10.09c0.42-2.47,0.3-7.78-0.98-9.95c-0.97-1.64-4.34-3.78-5.89-4.91c-2.02-1.46-6.25-4.25-7.86-6.13
				c-1.63-1.92-4.76-6.24-4.91-8.72c-0.22-3.58,5.25-10.09,4.63-13.63c-0.73-4.18-10.26-8.34-12.21-12.13
				c-1.82-3.54,1.31-11.95,0.42-15.81c-0.68-2.93-4.68-8.02-7.16-9.81c-3.09-2.24-10.03-6.47-13.89-6.54
				c-2.54-0.05-7.56,1.86-9.54,3.41c-2.67,2.07-4.22,3.83-7.63,3.54c-2.99-0.26-4.1-1.8-6.27-3.81c-2.29-2.12-9.39-2.51-12.49-1.91
				c-2.84,0.55-8.58,2.26-10.79,4.09c-3.79,3.13-9.85,11.38-11.09,16.06c-0.61,2.3,0.56,7.18,0,9.49c-0.48,1.97-2.92,5.43-4.32,6.94
				c-1.54,1.65-5.41,4.23-6.77,6.02c-2.47,3.26-6.46,10.83-6.59,14.88c-0.07,2.25,2.68,6.43,2.46,8.67
				c-0.24,2.41-3.66,6.36-5.26,8.21c-1.5,1.73-5.42,4.74-6.01,6.94c-1.09,4.04,1.37,12.64,3.19,16.43c1.22,2.53,6.85,6.83,6.02,9.5
				c-0.4,1.28-3.71,2.17-5.09,2.06C89.35,158.35,83.92,155.99,83.17,157.86z"/>
			<g>
				<path class="st6" d="M86.11,196.99c0,0,2.08-16.95,8.9-30.68c3.49-7.02,17.68-30.5,32-14.91
					c16.18,17.61,29.61,57.99,39.62,71.21c10.17,13.43,17.6,26.8,22.01,42.78C193.74,283.84,207.5,285,207.5,285H60.03
					c0,0,0.03-34.56,3.91-45.71c2.2-6.32,15.78-26.03,15.78-26.03s-9.89-7.84-8.54-11.19C72.52,198.78,86.11,196.99,86.11,196.99z"
					/>
				<path class="st7" d="M62.53,285c0,0,5.83-37.39,14.6-46.21c7.87-7.91,20.02-18.97,27.02-10.27c7.8,9.7,21.91,56.48,21.91,56.48
					H62.53z"/>
				<path class="st7" d="M121.14,210.06c0,0-8.41-11.25-11.14-29.89c-1.99-13.59,4.02-26.41,4.02-26.41s-1.48,21.37-1.1,25.49
					C113.57,186.07,121.14,210.06,121.14,210.06z"/>
				<path class="st7" d="M82.05,202.1c0,0,11.86,4.53,25.52,17.31c9.95,9.32,22.48,39.4,22.48,39.4s-20.55-34.41-23.45-37.34
					C101.8,216.63,82.05,202.1,82.05,202.1z"/>
				<path class="st8" d="M159.8,274.25c0,0,1.82-24.48-8.72-34.72c-7.69-7.47-28.4-19.77-28.4-19.77s20.7,14.14,28.03,22.87
					C156.22,249.2,159.8,274.25,159.8,274.25z"/>
				<path class="st7" d="M82.78,199.21c0,0,26.03,11.15,42.32,27.52c14.6,14.67,24.62,42.33,24.62,42.33s-18.73-33.88-24.48-39.66
					C109.88,213.97,82.78,199.21,82.78,199.21z"/>
				<path class="st7" d="M149.72,222.61c0,0-20.2-20.79-27.04-38.34c-4.99-12.79-2.74-32.87-2.74-32.87s1.97,21.21,5.38,31.57
					C129.78,196.5,149.72,222.61,149.72,222.61z"/>
				<path class="st9" d="M154.08,213.64c0,0-16.34-10.97-24.19-31.2c-5.73-14.75-5.92-30.14-5.92-30.14s3.03,14.98,8.85,30.31
					C135.62,190.01,154.08,213.64,154.08,213.64z"/>
				<path class="st9" d="M129.16,205.46c0,0-9.78-10.06-13.04-26.29c-2.38-11.83,1.55-25.41,1.55-25.41s-1.46,14.4,0.93,26.67
					C119.76,186.36,129.16,205.46,129.16,205.46z"/>
				<path class="st9" d="M103.38,183.21c0,0-3.09-6.4-1.79-14.36c0.95-5.8,5.37-11.21,5.37-11.21s-2.38,6.47-3.4,12.48
					C103.07,173.02,103.38,183.21,103.38,183.21z"/>
				<path class="st9" d="M163.76,257.36c0,0-0.25-9.94-4.65-16.71c-3.21-4.93-19.94-12.02-19.94-12.02s13.2,6.66,18.29,13.69
					C160.52,246.56,163.76,257.36,163.76,257.36z"/>
				<path class="st7" d="M83.38,198.34l2.8-1.31c0,0,9.54,0.64,12.58,1.57c4.82,1.47,13.9,5.96,18.42,8.2
					c5.73,2.84,16.85,9.3,22.89,11.36c4.7,1.6,15.86,5.35,19.85,8.31c6.88,5.1,8.44,9.47,11.55,14.14
					c2.33,3.5,5.02,12.24,5.98,15.62c1.07,3.75,2.24,13.78,3.57,17.44c1.77,4.86,7.26,10.01,7.26,10.01s-6.77-3.62-8.4-6.39
					c-3.19-5.42-3.39-5.96-4.38-11.47c-0.74-4.13-1.25-6.64-3.47-11.73c-2.02-4.64-5.13-14.64-12.11-20.42
					c-3.2-2.65-12.63-8.02-16.57-9.33c-4.44-1.47-12.58-6.26-16.58-8.7c-2.46-1.5-7.24-4.77-9.78-6.13
					c-4.44-2.38-13.42-7.36-18.38-8.2C94.78,200.66,83.38,198.34,83.38,198.34z"/>
			</g>
			<path class="st10" d="M104.62,232.71c-0.36-10.78-29.79-38.37-33.97-28.44c-6.93,16.51-10.24,50.28-1.37,56.26
				C82.59,269.5,105.11,247.31,104.62,232.71z"/>
			<path class="st11" d="M93.12,228.49c-3.14-10.31-16.97-25.99-22.1-16.52c-2.29,4.23-3.48,43.06,1.19,46.73
				C84.82,268.63,96.76,240.44,93.12,228.49z"/>
			<g>
				<path class="st4" d="M72.29,201.84c2.8,1.06,7.46,5.2,10.31,6.11c1.04,0.33,3.28-0.04,4.35,0.13c0.93,0.15,2.58,1.26,3.51,1.43
					c0.93,0.17,2.98-0.87,3.78-0.36c1.14,0.73,1.75,3.96,1.38,5.27c-0.41,1.44-2.29,3.89-3.38,4.91c-1.2,1.12-3.85,3.06-5.24,3.93
					c-0.87,0.55-2.61,1.71-3.6,2.01c-1.61,0.48-5.03,0.67-6.71,0.58c-2.39-0.13-7.14-0.81-9.51-1.21c-0.55-0.09-1.64-0.27-2.18-0.4
					c-1.43-0.35-4.63-0.62-5.64-1.7c-0.92-0.98-1.4-3.88-1.33-5.22c0.07-1.47,0.71-4.36,1.16-5.76c0.32-1,1.59-2.88,1.51-3.93
					c-0.07-0.83-1.13-2.28-1.73-2.86c-0.84-0.79-2.87-1.95-3.73-2.72c-1.06-0.95-3.12-3.05-3.64-4.37
					c-0.41-1.02-0.76-3.31-0.49-4.37c0.26-1.02,1.07-3.4,2.09-3.66c0.93-0.24,2.75,1.04,3.44,1.7c1.19,1.15,3.07,3.91,4.24,5.08
					c1.22,1.23,3.84,3.63,5.44,4.27C67.72,201.26,70.86,201.3,72.29,201.84z"/>
				<g>
					<ellipse class="st12" cx="83.03" cy="192.79" rx="18.25" ry="18.34"/>
					<path d="M81.78,179.86c0,0,4.64,1.14,5.63,2.3c0.51,0.6,1.42,2.01,1.46,2.8c0.04,0.9-1.46,2.61-1.09,3.43
						c0.32,0.72,2.31,0.6,3.02,0.94c0.6,0.29,1.79,1.27,1.85,1.94c0.04,0.48-0.47,1.42-0.86,1.7c-0.64,0.46-2.22,0.84-2.99,0.97
						c-1,0.17-4.01,0.52-4.01,0.52s2.14,0.18,2.89,0.06c0.53-0.08,1.93-0.44,2.46-0.52c0.56-0.08,1.48-0.22,2.04-0.13
						c0.6,0.1,1.77,0.78,2.06,1.32c0.39,0.72,0.38,3.26,0.33,3.25c-0.04-0.01-1.4,1.72-1.57,1.7c-0.17-0.02-2.2,1.01-2.97,1.21
						c-1.3,0.33-3.99,0.48-5.33,0.48c-1.26,0-3.79,0-5.05-0.14c-1.08-0.12-3.25-0.4-4.26-0.79c-0.8-0.32-2.44-1.08-2.94-1.78
						c-0.44-0.61-0.99-2.15-0.81-2.88c0.12-0.48,0.75-1.32,1.17-1.57c0.64-0.39,2.69-0.08,2.89-0.81c0.12-0.45-1.1-0.87-1.4-1.22
						c-0.29-0.34-0.59-1.27-0.53-1.71c0.07-0.46,0.47-1.4,0.85-1.66c0.39-0.26,1.36-0.36,1.82-0.37c0.61-0.02,1.83,0.03,2.45,0.05
						c1.42,0.04,5.66,0.08,5.66,0.08s-1.9-0.21-2.74-0.27c-0.36-0.03-1.69-0.23-2.18-0.33c-0.38-0.07-0.96-0.2-1.33-0.49
						c-0.34-0.26-0.84-1-0.88-1.34c-0.04-0.41,0.55-1.13,0.88-1.38c0.52-0.39,1.73-0.93,2.33-1.21c0.5-0.23,1.52-0.64,2-0.92
						c0.25-0.14,0.84-0.39,0.93-0.66c0.08-0.24-0.11-0.79-0.29-0.98C82.91,181.05,81.78,179.86,81.78,179.86z"/>
				</g>
				<path class="st13" d="M60.99,215.35c-0.02-1.11,1.9,0.24,2.45-0.01c0.6-0.28,1.43-1.42,1.75-2.01c0.5-0.92,1.17-2.91,1.69-3.82
					c0.41-0.72,1.31-2.21,2.03-2.63c0.54-0.31,1.85-0.63,2.45-0.45c0.67,0.2,1.82,1.12,2.23,1.69c0.43,0.6,0.48,2.57,1.21,2.7
					c0.49,0.09,0.92-1.17,1.3-1.5c0.51-0.44,1.86-0.91,2.53-0.88c0.54,0.03,1.6,0.39,2.06,0.68c0.47,0.3,1.11,1.57,1.66,1.5
					c0.34-0.04,0.45-0.96,0.7-1.19c0.58-0.52,2.29-0.8,3.04-0.62c0.6,0.14,1.76,0.74,2.17,1.22c0.36,0.42,0.41,1.92,0.96,2.01
					c0.65,0.1,1.15-2.05,1.71-2.39c0.26-0.16,0.81-0.36,0.96-0.09c0.38,0.71-0.46,2.86-0.94,3.5c-0.3,0.4-1.09,1.07-1.3,1.53
					c-0.26,0.58-0.17,1.89-0.28,2.52c-0.17,0.93-0.88,2.71-1.3,3.56c-0.26,0.53-0.6,1.88-1.15,2.06c-0.31,0.1-1.11-0.2-1.21-0.51
					c-0.15-0.46,0.43-1.38,0.65-1.81c0.19-0.38,0.54-1.18,0.68-1.58c0.18-0.54,0.47-1.63,0.62-2.18c0.12-0.45,0.41-1.35,0.48-1.81
					c0.05-0.36,0.16-1.12,0.06-1.47c-0.18-0.6-0.8-1.87-1.39-2.06c-0.82-0.27-2.82,0.16-3.34,0.85c-0.34,0.46-0.25,1.7-0.31,2.26
					c-0.07,0.64-0.39,1.88-0.59,2.49c-0.19,0.58-0.62,1.71-0.87,2.26c-0.26,0.58-0.81,1.71-1.13,2.26
					c-0.27,0.47-0.84,1.39-1.15,1.84c-0.32,0.45-0.93,1.37-1.32,1.75c-0.32,0.32-1,1.09-1.45,1.09c-0.41,0-1.34-0.53-1.36-0.95
					c-0.04-0.7,1.27-1.69,1.75-2.21c0.41-0.44,1.06-1.46,1.41-1.95c0.32-0.45,1.05-1.28,1.32-1.75c0.31-0.55,0.71-1.78,0.93-2.38
					c0.21-0.56,0.71-1.66,0.87-2.23c0.1-0.37,0.31-1.12,0.25-1.5c-0.04-0.31-0.33-0.88-0.51-1.13c-0.22-0.32-0.67-1.01-1.01-1.19
					c-0.39-0.2-1.32-0.35-1.75-0.23c-0.65,0.19-1.75,1.07-2.25,1.53c-0.28,0.25-0.87,0.73-1.07,1.05c-0.23,0.36-0.47,1.19-0.56,1.61
					c-0.11,0.51-0.19,1.56-0.34,2.06c-0.17,0.57-0.69,1.64-0.99,2.15c-0.27,0.46-0.81,1.38-1.15,1.78
					c-0.57,0.67-1.88,1.86-2.59,2.38c-0.45,0.32-1.35,1.02-1.89,1.13c-0.55,0.11-2.03,0.3-2.22-0.23c-0.16-0.43,0.75-1.18,1.13-1.44
					c0.49-0.35,1.56-0.92,2.03-1.3c0.4-0.32,1.1-1.08,1.44-1.47c0.39-0.46,1.19-1.37,1.52-1.87c0.35-0.53,0.9-1.64,1.15-2.26
					s0.55-1.19,0.62-1.61c0.1-0.57,0.1-1.75-0.03-2.32c-0.09-0.43-0.41-1.26-0.62-1.64c-0.22-0.4-0.61-1.36-1.04-1.53
					c-0.4-0.16-1.34,0.06-1.69,0.31c-0.58,0.42-1.4,1.64-1.75,2.26c-0.21,0.39-0.55,1.22-0.76,1.61c-0.29,0.54-0.91,1.61-1.3,2.09
					c-0.31,0.39-0.95,1.22-1.41,1.41c-0.57,0.24-1.96,0.32-2.48,0.11C61.68,216.18,61,215.76,60.99,215.35z"/>
			</g>
			<path class="st4" d="M155.18,166.36c-19.76,0-25.92-20.17-25.92-20.17l14.89-19.22c5.71-7.37,16.86-7.2,22.35,0.33l14.24,19.55
				C180.73,146.85,174.54,166.36,155.18,166.36z"/>
			<path class="st5" d="M154.87,113.37c0,0,12.74-3.73,17.76-3.54c2.51,0.09,7.56,4.24,10.04,3.81c4.4-0.78,10.55-14.97,10.55-14.97
				s-1.19,29.85-10.67,42.85c-4.56,6.25-11.49,12.95-27.17,13.67c-14.44,0.67-25.21-11.44-30.01-16.76
				c-7.18-7.96-14.02-37.96-14.02-37.96s8.92,12.77,13.56,13.38c2.67,0.35,7.26-4.18,9.95-4.26
				C140.22,109.43,154.87,113.37,154.87,113.37z"/>
			<path class="st14" d="M92.93,142.07c-1.23,2.87,7.37,7.62,10.78,7.54c2.4-0.06,7.27-2.03,8.6-3.83c1.11-1.51,2.07-5.35,1.57-7.11
				c-0.69-2.43-5.01-6.09-6.06-8.42c-1.12-2.49-2.45-8.32-1.09-10.71c0.92-1.62,4.78-3.38,6.54-4.26c1.75-0.88,5.62-2.32,6.9-3.72
				c1.25-1.35,2.7-4.8,2.79-6.56c0.07-1.55-0.83-4.61-1.21-6.12c-0.54-2.15-2.75-6.56-1.94-8.64c0.57-1.44,3.83-3.04,5.21-3.94
				c1.52-0.98,4.72-2.93,5.69-4.37c0.88-1.3,1.8-4.38,1.7-5.9c-0.16-2.22-4.28-6.76-2.79-8.53c3.87-4.59,25.37,8.31,25.37,8.31
				s19.79-11.34,23.92-7.44c1.14,1.08-0.74,4.44-1.09,5.9c-0.45,1.9-1.27,6.06-0.24,7.76c1.04,1.73,5.59,3.11,7.15,4.48
				c1.48,1.3,3.77,4.72,3.9,6.58c0.15,2.03-2,5.84-2.33,7.85c-0.36,2.22-0.14,6.86,0.73,8.96c1,2.43,4.77,6.48,6.18,8.75
				c1.1,1.77,3.47,5.51,3.39,7.54c-0.09,2.15-3.07,5.84-3.88,7.87c-0.54,1.35-1.33,4.28-0.97,5.68c0.53,2.03,3.1,5.74,4.84,7.11
				c2.13,1.67,6.99,5.07,9.81,5.03c1.5-0.02,4.26-1.56,5.33-2.51c0.72-0.65,2.01-2.11,2.42-2.95c0.61-1.24,2.71-4.51,1.45-5.25
				c-1.48-0.87-4.1,3.24-5.81,3.61c-1.24,0.26-3.84-0.92-4.72-1.75c-0.96-0.91-2.83-3.11-2.79-4.37c0.06-1.81,2.82-4.8,3.88-6.34
				c1.31-1.92,3.96-5.87,4.36-8.09c0.36-1.98,0.26-6.24-0.85-7.98c-0.83-1.31-3.74-3.03-5.09-3.94c-1.75-1.17-5.4-3.41-6.78-4.92
				c-1.41-1.54-4.11-5.01-4.24-7c-0.19-2.87,4.53-8.09,4-10.93c-0.63-3.35-8.85-6.69-10.54-9.73c-1.57-2.84,1.13-9.59,0.36-12.68
				c-0.58-2.35-4.03-6.43-6.18-7.87c-2.67-1.8-8.66-5.19-11.99-5.25c-2.19-0.04-6.52,1.5-8.24,2.73c-2.3,1.66-4.01,5.86-6.95,5.63
				c-2.58-0.2-3.17-4.24-5.04-5.85c-1.98-1.7-8.1-2.01-10.78-1.53c-2.45,0.44-7.41,1.82-9.31,3.28c-3.27,2.51-8.5,9.13-9.57,12.88
				c-0.52,1.84,0.48,5.76,0,7.61c-0.41,1.58-2.52,4.36-3.73,5.56c-1.33,1.32-4.67,3.39-5.84,4.83c-2.13,2.62-5.57,8.69-5.69,11.93
				c-0.06,1.8,2.31,5.16,2.12,6.95c-0.2,1.93-3.16,5.1-4.54,6.59c-1.3,1.39-4.68,3.8-5.19,5.56c-0.94,3.24,1.18,10.14,2.76,13.17
				c1.05,2.03,5.91,5.48,5.2,7.62c-0.34,1.03-3.21,1.74-4.39,1.66C98.26,142.47,93.57,140.57,92.93,142.07z"/>
			<g>
				<path class="st15" d="M150.89,120.25c1.9,0.24,5.71,0.7,7.62,0.59c4.55-0.28,14.26-6.15,18.02-3.3
					c3.05,2.32,4.13,12.51,2.49,16.22c-1.4,3.15-6.52,9.37-9.67,9.1c-9.98-0.86-7.63-5.59-10.68-7.14
					c-1.82-0.93-6.57-0.62-8.49,0.05c-3.71,1.3-0.81,6.56-12.9,6.13c-3.59-0.13-9.52-7.82-9.85-11.8
					c-0.29-3.48,1.53-11.61,4.37-13.16C136.15,114.55,146.09,119.64,150.89,120.25z"/>
			</g>
			<g>
				<path class="st16" d="M151.01,124.46c1.73,0.15,5.2,0.44,6.94,0.41c4.14-0.08,12.89-2.96,16.34-1.44
					c2.81,1.23,3.93,6.49,2.49,8.37c-1.23,1.6-5.46,2.52-8.33,2.34c-9.09-0.58-7.36-0.78-10.15-1.62c-1.67-0.5-5.98-0.41-7.72-0.09
					c-3.35,0.61-1.31,1.48-12.3,1.09c-3.27-0.12-8.11-2.28-8.47-4.32c-0.31-1.79,1.23-5.95,3.79-6.7
					C137.53,121.33,146.63,124.08,151.01,124.46z"/>
			</g>
			<g>
				<path class="st17" d="M125.28,95.02c0.82-1.08,1.94-3.7,2.79-4.76c1.33-1.67,4.93-4.25,6.47-5.24c1.88-1.22,7.24-2.37,8.69-1.66
					c1.91,0.94,7.17,9.66,6.47,12.28c-0.25,0.97,0,0,0,0c-0.39,1.33-1.09,3.71-2.41,4.9c-1.35,1.22-6.34,5.58-7.99,6
					c-1.59,0.41-7.04,1.73-8.62,0.9c-1.71-0.9-4.14-5.94-5.64-7.8c-0.49-0.6-2.25-1.18-2.28-2
					C122.7,96.67,124.72,95.75,125.28,95.02z"/>
				<path class="st18" d="M139.42,91.84c-2.03,0-10.99,3.37-11.8,5.94c-0.19,0.62,1.96,5.46,2.79,6.21
					c0.76,0.69,1.84,1.92,3.11,2.07c1.59,0.19,5.19-0.64,6.79-1.17c1.52-0.5,7.31-5.85,8.62-7.94c0.13-0.21,0.19-1.87,0.06-2
					C146.82,92.68,142.21,91.84,139.42,91.84z"/>
				<path class="st19" d="M133.39,93.7c-1.14,0.76,1.52,4.57,2.73,5.24c1.26,0.7,4.44,0.98,5.71,0.28c1.34-0.75,4.76-5.94,3.23-6.63
					C142.14,91.29,136.76,91.44,133.39,93.7z"/>
			</g>
			<g>
				<path class="st17" d="M183,95.02c-0.82-1.08-1.94-3.7-2.79-4.76c-1.33-1.67-4.93-4.25-6.47-5.24c-1.88-1.22-7.24-2.37-8.69-1.66
					c-1.91,0.94-7.17,9.66-6.47,12.28c0.25,0.97,0,0,0,0c0.39,1.33,1.09,3.71,2.41,4.9c1.35,1.22,6.34,5.58,7.99,6
					c1.59,0.41,7.04,1.73,8.62,0.9c1.71-0.9,4.14-5.94,5.64-7.8c0.49-0.6,2.25-1.18,2.28-2C185.57,96.67,183.55,95.75,183,95.02z"/>
				<path class="st18" d="M168.85,91.84c2.03,0,10.99,3.37,11.8,5.94c0.19,0.62-1.96,5.46-2.79,6.21c-0.76,0.69-1.84,1.92-3.11,2.07
					c-1.59,0.19-5.19-0.64-6.79-1.17c-1.52-0.5-7.31-5.85-8.62-7.94c-0.13-0.21-0.19-1.87-0.06-2
					C161.45,92.68,166.06,91.84,168.85,91.84z"/>
				<path class="st19" d="M174.88,93.7c1.14,0.76-1.52,4.57-2.73,5.24c-1.26,0.7-4.44,0.98-5.71,0.28
					c-1.34-0.75-4.76-5.94-3.23-6.63C166.13,91.29,171.51,91.44,174.88,93.7z"/>
			</g>
			<g>
				<g>
					<ellipse class="st20" cx="171.49" cy="94.2" rx="12.7" ry="10.18"/>
					<ellipse class="st21" cx="171.49" cy="94.2" rx="12.7" ry="10.18"/>
				</g>
				<g>
					<ellipse class="st20" cx="136.76" cy="94.2" rx="12.7" ry="10.18"/>
					<ellipse class="st21" cx="136.76" cy="94.2" rx="12.7" ry="10.18"/>
				</g>
				<line class="st22" x1="149.19" y1="93.68" x2="158.82" y2="93.68"/>
				<line class="st22" x1="120.09" y1="94.17" x2="124.51" y2="94.17"/>
				<line class="st22" x1="183.66" y1="93.68" x2="188.71" y2="93.74"/>
			</g>
			<path class="st23" d="M130.05,127.07c1.42,0.15,4.15,1.22,5.58,1.26c2.07,0.05,6.19,0.68,8.26,0.67c1.82,0,5.42-0.65,7.23-0.76
				c1.53-0.1,4.59-0.01,6.12,0.09c1.81,0.11,5.42,0.48,7.23,0.63c1.56,0.13,4.69,0.54,6.25,0.45c1.68-0.1,4.93-1.37,6.6-1.23"/>
		</g>
	</g>
</g>
<text transform="matrix(1 0 0 1 266.626 283.3647)" class="st24 st25">HNFT PEPE</text>
</svg>
